<?xml version="1.0" encoding="utf-8"?>
<!-- Svg Vector Icons : http://www.onlinewebfonts.com/icon -->
<!DOCTYPE svg PUBLIC "-//W3C//DTD SVG 1.1//EN" "http://www.w3.org/Graphics/SVG/1.1/DTD/svg11.dtd">
<svg version="1.1" xmlns="http://www.w3.org/2000/svg" xmlns:xlink="http://www.w3.org/1999/xlink" x="0px" y="0px" viewBox="0 0 1000 1000" enable-background="new 0 0 1000 1000" xml:space="preserve">
<metadata> Svg Vector Icons : http://www.onlinewebfonts.com/icon </metadata>
<g><path d="M892,230.5H784.9c5.4-15.4,9.1-31.6,9.1-49c0-81.1-65.9-147-147-147c-51.2,0-96.3,26.2-122.5,65.9L500,133.7l-24.5-33.3C449.3,60.7,404.2,34.5,353,34.5c-81.1,0-147,65.9-147,147c0,17.4,3.4,33.6,9.1,49H108c-54.1,0-97.5,43.9-97.5,98l-0.5,539c0,54.1,43.9,98,98,98h784c54.1,0,98-43.9,98-98v-539C990,274.4,946.1,230.5,892,230.5z M647,132.5c27,0,49,22.1,49,49s-22.1,49-49,49c-26.9,0-49-22.1-49-49S620.1,132.5,647,132.5L647,132.5z M353,132.5c27,0,49,22.1,49,49s-22.1,49-49,49s-49-22.1-49-49S326.1,132.5,353,132.5L353,132.5z M892,867.5H108v-98h784V867.5z M892,622.5H108v-294h248.9L255,467.4l79.6,57.1L500,299.3l49,66.6l116.4,158.5l79.6-57.1L643.1,328.5H892V622.5L892,622.5z"/></g>
</svg>