<svg xmlns="http://www.w3.org/2000/svg" width="20.433" height="17.969" viewBox="0 0 20.433 17.969">
  <path id="Path_118" data-name="Path 118" d="M34.877,66.931h1.751a.682.682,0,0,1,.681.681v4.616a.682.682,0,0,1-.681.681H34.877a.682.682,0,0,1-.681-.681V67.612a.682.682,0,0,1,.681-.681ZM50.906,75.05H32.056V58.664a.528.528,0,0,0-1.056,0V75.577a.528.528,0,0,0,.528.528H50.906a.528.528,0,0,0,0-1.056Zm-10.084-11.8h1.751a.682.682,0,0,1,.681.681v8.3a.682.682,0,0,1-.681.681H40.822a.682.682,0,0,1-.681-.681v-8.3a.682.682,0,0,1,.681-.681Zm5.945-3.478h1.751a.682.682,0,0,1,.681.681V72.228a.682.682,0,0,1-.681.681H46.767a.682.682,0,0,1-.681-.681V60.449A.682.682,0,0,1,46.767,59.768Z" transform="translate(-31 -58.136)" fill="#6eb799" fill-rule="evenodd"/>
</svg>
